<?xml version="1.0" standalone="no"?>
<!DOCTYPE svg PUBLIC "-//W3C//DTD SVG 20010904//EN"
 "http://www.w3.org/TR/2001/REC-SVG-20010904/DTD/svg10.dtd">
<svg version="1.0" xmlns="http://www.w3.org/2000/svg"
 width="300.000000pt" height="300.000000pt" viewBox="0 0 300.000000 300.000000"
 preserveAspectRatio="xMidYMid meet">
<metadata>
Created by potrace 1.11, written by Peter Selinger 2001-2013
</metadata>
<g transform="translate(0.000000,300.000000) scale(0.100000,-0.100000)"
fill="#000000" stroke="none">
<path d="M397 2602 l-157 -157 158 -158 157 -157 158 157 157 158 0 -158 0
-157 310 0 c171 0 310 3 310 6 0 3 -139 145 -310 315 l-310 310 0 -158 0 -158
-158 158 -157 157 -158 -158z"/>
<path d="M1500 2445 l0 -316 158 158 c87 87 229 229 316 316 l157 157 -315 0
-316 0 0 -315z"/>
<path d="M2287 2602 l-157 -157 157 -158 158 -157 -158 0 -157 0 0 -315 0
-316 315 -315 315 -316 0 316 0 316 -310 0 c-170 0 -310 2 -310 5 0 2 140 144
311 315 l311 310 -159 0 -158 0 158 158 157 157 -158 158 -157 157 -158 -158z"/>
<path d="M240 1816 l0 -316 312 -2 312 -3 -313 -312 -312 -313 158 0 158 0
-158 -158 -157 -157 158 -158 157 -157 158 158 157 157 -157 158 -158 157 158
0 157 0 0 316 0 315 -315 315 -315 315 0 -315z"/>
<path d="M1415 1865 c-74 -18 -95 -29 -151 -73 -95 -75 -144 -183 -139 -307 4
-102 35 -174 104 -244 82 -83 171 -120 281 -116 200 7 356 160 365 356 11 250
-222 445 -460 384z"/>
<path d="M1182 554 l-313 -314 315 0 316 0 0 315 c0 173 -1 315 -2 314 -2 0
-144 -142 -316 -315z"/>
<path d="M1510 865 c0 -4 140 -145 310 -316 l310 -310 0 158 0 158 158 -158
157 -157 158 157 157 158 -157 157 -158 158 -157 -157 -158 -158 0 158 0 157
-310 0 c-170 0 -310 -2 -310 -5z"/>
</g>
</svg>
